# AST/ASF file generated using VICON BodyLanguage
# -----------------------------------------------
:version 1.10
:name VICON
:units
  mass 1.0
  length 0.45
  angle deg
:documentation
   .ast/.asf automatically generated from VICON data using
   VICON BodyBuilder and BodyLanguage model FoxedUp or BRILLIANT.MOD
:root
   order TX TY TZ RX RY RZ
   axis XYZ
   position 0 0 0  
   orientation 0 0 0 
:bonedata
  begin
     id 1 
     name lhipjoint
     direction 0.623529 -0.717805 0.309788 
     length 2.23224 
     axis 0 0 0  XYZ
  end
  begin
     id 2 
     name lfemur
     direction 0.34202 -0.939693 0  
     length 7.11402  
     axis 0 0 20  XYZ
    dof rx ry rz
    limits (-160.0 20.0)
           (-70.0 70.0)
           (-60.0 70.0)
  end
  begin
     id 3 
     name ltibia
     direction 0.34202 -0.939693 0   
     length 6.78496   
     axis 0 0 20   XYZ
    dof rx
    limits (-10.0 170.0)
  end
  begin
     id 4 
     name lfoot
     direction 0.125078 -0.343648 0.930732   
     length 1.84054   
     axis -90 7.62852e-016 20   XYZ
    dof rx rz
    limits (-45.0 90.0)
           (-70.0 20.0)
  end
  begin
     id 5 
     name ltoes
     direction 1.53565e-011 -4.21893e-011 1   
     length 0.916474   
     axis -90 7.62852e-016 20   XYZ
    dof rx
    limits (-90.0 20.0)
  end
  begin
     id 6 
     name rhipjoint
     direction -0.564688 -0.757748 0.327026   
     length 2.11457  
     axis 0 0 0  XYZ 
  end
  begin
     id 7 
     name rfemur
     direction -0.34202 -0.939693 0   
     length 7.14609   
     axis 0 0 -20   XYZ
    dof rx ry rz
    limits (-160.0 20.0)
           (-70.0 70.0)
           (-70.0 60.0)
  end
  begin
     id 8 
     name rtibia
     direction -0.34202 -0.939693 0   
     length 6.78101   
     axis 0 0 -20   XYZ
    dof rx
    limits (-10.0 170.0)
 end
 begin
     id 9 
     name rfoot
     direction -0.0992671 -0.272734 0.956955   
     length 1.96168  
     axis -90 -7.62852e-016 -20   XYZ
    dof rx rz
    limits (-45.0 90.0)
           (-20.0 70.0)
  end
  begin
     id 10 
     name rtoes
     direction -1.5356e-011 -4.21891e-011 1   
     length 0.982933   
     axis -90 -7.62852e-016 -20   XYZ
    dof rx
    limits (-90.0 20.0)
  end
  begin
     id 11 
     name lowerback
     direction -0.00596953 0.998668 0.0512524   
     length 1.87557   
     axis 0 0 0   XYZ
    dof rx ry rz
    limits (-20.0 45.0)
           (-30.0 30.0)
           (-30.0 30.0)
  end
  begin
     id 12 
     name upperback
     direction 0.00584879 0.999652 0.0257308   
     length 1.87883   
     axis 0 0 0   XYZ
    dof rx ry rz
    limits (-20.0 45.0)
           (-30.0 30.0)
           (-30.0 30.0)
  end
  begin
     id 13 
     name thorax
     direction 0.010104 0.999947 0.00178881   
     length 1.87779   
     axis 0 0 0   XYZ
    dof rx ry rz
    limits (-20.0 45.0)
           (-30.0 30.0)
           (-30.0 30.0)
  end
  begin
     id 14 
     name lowerneck
     direction 0.0120771 0.995934 -0.0892773   
     length 1.40897   
     axis 0 0 0   XYZ
    dof rx ry rz
    limits (-20.0 45.0)
           (-30.0 30.0)
           (-30.0 30.0)
  end
  begin
     id 15 
     name upperneck
     direction -0.030568 0.999465 -0.0116366   
     length 1.38661   
     axis 0 0 0   XYZ
    dof rx ry rz
    limits (-20.0 45.0)
           (-30.0 30.0)
           (-30.0 30.0)
  end
  begin
     id 16
     name head
     direction -0.0170715 0.999854 -0.00104426  
     length 1.47052  
     axis 0 0 0   XYZ
    dof rx ry rz
    limits (-20.0 45.0)
           (-30.0 30.0)
           (-30.0 30.0)
  end
  begin
     id 17 
     name lclavicle
     direction 0.977763 0.206143 0.038532  
     length 3.02424  
     axis 0 0 0   XYZ
    dof ry rz
    limits (-20.0 10.0)
           (0.0 20.0)
  end
  begin
     id 18 
     name lhumerus
     direction 1 -4.48965e-011 -2.62654e-027   
     length 4.68382   
     axis 180 -30 -90   XYZ
    dof rx ry rz
    limits (-60.0 90.0)
           (-90.0 90.0)
           (-90.0 90.0)
  end
  begin
     id 19
     name lradius
     direction 1 -4.48973e-011 -1.54954e-027   
     length 2.98124   
     axis 180 -30 -90   XYZ
    dof rx
    limits (-10.0 170.0)
  end
  begin
     id 20
     name lwrist
     direction 1 -4.48959e-011 7.20928e-028   
     length 1.49062   
     axis -5.52449e-016 90 90   XYZ
    dof ry
    limits (-180.0 0.0)
 end
  begin
     id 21 
     name lhand
     direction 1 -4.48971e-011 1.44186e-027   
     length 0.707595   
     axis -9.20027e-016 90 90   XYZ
    dof rx rz
    limits (-90.0 90.0)
           (-45.0 45.0)
  end
  begin
     id 22 
     name lfingers
     direction 1 -4.48985e-011 2.88371e-027   
     length 0.570481   
     axis -1.84005e-015 90 90   XYZ
    dof rx
    limits (0.0 90.0)
  end
  begin
     id 23
     name lthumb
     direction 0.707107 -6.34929e-011 0.707107   
     length 0.819101   
     axis -90 45 2.85299e-015   XYZ
    dof rx rz
    limits (-45.0 45.0)
           (-45.0 45.0)
  end
  begin
     id 24 
     name rclavicle
     direction -0.958661 0.284411 -0.00895327   
     length 3.11921  
     axis 0 0 0   XYZ 
    dof ry rz
    limits (-10.0 20.0)
           (-20.0 0.0)
  end
  begin
     id 25 
     name rhumerus
     direction -1 -4.48963e-011 -4.22193e-027  
     length 4.75876   
     axis 180 30 90   XYZ
    dof rx ry rz
    limits (-90.0 60.0)
           (-90.0 90.0)
           (-90.0 90.0)
  end
  begin
     id 26 
     name rradius
     direction -1 -4.48968e-011 -1.07616e-027   
     length 2.93293   
     axis 180 30 90   XYZ
    dof rx
    limits (-10.0 170.0)
  end
  begin
     id 27 
     name rwrist
     direction -1 -4.48965e-011 7.20928e-028   
     length 1.46647   
     axis -5.52449e-016 -90 -90   XYZ
    dof ry
    limits (-180.0 0.0)
  end
  begin
     id 28
     name rhand
     direction -1 -4.48971e-011 1.44186e-027   
     length 0.831748   
     axis -9.20027e-016 -90 -90   XYZ
    dof rx rz
    limits (-90.0 90.0)
           (-45.0 45.0)
  end
  begin
     id 29
     name rfingers
     direction -1 -4.48961e-011 2.88371e-027   
     length 0.670577   
     axis -1.84005e-015 -90 -90   XYZ
    dof rx
    limits (0.0 90.0)
  end
  begin
     id 30
     name rthumb
     direction -0.707107 -6.34929e-011 0.707107   
     length 0.962818   
     axis -90 -45 -2.85299e-015   XYZ
    dof rx rz
    limits (-45.0 45.0)
           (-45.0 45.0)
  end
:hierarchy
  begin
    root lhipjoint rhipjoint lowerback
    lhipjoint lfemur
    lfemur ltibia
    ltibia lfoot
    lfoot ltoes
    rhipjoint rfemur
    rfemur rtibia
    rtibia rfoot
    rfoot rtoes
    lowerback upperback
    upperback thorax
    thorax lowerneck lclavicle rclavicle
    lowerneck upperneck
    upperneck head
    lclavicle lhumerus
    lhumerus lradius
    lradius lwrist
    lwrist lhand lthumb
    lhand lfingers
    rclavicle rhumerus
    rhumerus rradius
    rradius rwrist
    rwrist rhand rthumb
    rhand rfingers
  end

#!OML:ASF E:\id_vita\Project 1\Capture day 1\Session 1\Female.ASF
:FULLY-SPECIFIED
:DEGREES
52
root -27.4116 16.0507 -0.346922 2.96344 86.2235 -18.105
lowerback -10.3953 -0.731786 -4.16022
upperback -2.17564 -0.489071 0.829928
thorax 3.60179 -0.256761 3.14665
lowerneck -1.11546 0.500802 -2.58274
upperneck 15.6663 0.626705 3.81947
head 4.8528 0.51108 1.65081
rclavicle 6.21202e-015 -5.1684e-015
rhumerus -47.9629 -31.1947 -63.4601
rradius 18.8253
rwrist 22.7573
rhand -14.7692 10.9927
rfingers 7.12502
rthumb 11.3873 -18.6781
lclavicle 6.21202e-015 -5.1684e-015
lhumerus -40.9893 46.1431 61.9002
lradius 15.4751
lwrist -52.8632
lhand -5.27068 24.0097
lfingers 7.12502
lthumb 20.5333 52.9439
rfemur -47.9048 6.30565 21.3509
rtibia 40.5878
rfoot -9.72306 -14.8974
rtoes 1.1638
lfemur -20.4786 -10.824 -23.7696
ltibia 27.4408
lfoot -26.3349 11.2183
ltoes 9.3003
53
root -27.3509 16.0476 -0.352441 4.66231 86.2811 -16.4121
lowerback -10.4076 -0.775745 -4.21169
upperback -2.21368 -0.539163 0.791435
thorax 3.57323 -0.280136 3.12878
lowerneck -1.06688 0.558985 -2.48523
upperneck 15.8699 0.714215 3.74662
head 4.90528 0.55907 1.61786
rclavicle 1.20265e-014 -3.77691e-015
rhumerus -48.2366 -31.3089 -63.2763
rradius 18.8332
rwrist 23.1092
rhand -14.7484 10.6715
rfingers 7.12502
rthumb 11.4074 -18.9982
lclavicle 1.20265e-014 -3.77691e-015
lhumerus -38.6901 44.0118 64.7527
lradius 16.1699
lwrist -49.6254
lhand -4.84192 24.0139
lfingers 7.12502
lthumb 20.9453 52.9031
rfemur -48.2398 6.33006 21.3191
rtibia 39.1908
rfoot -8.88581 -14.0671
rtoes -0.151854
lfemur -20.0833 -10.8471 -23.9408
ltibia 27.0562
lfoot -26.4044 10.9948
ltoes 9.74121
54
root -27.2854 16.0442 -0.357034 5.89108 86.4475 -15.0405
lowerback -10.254 -0.792831 -4.22603
upperback -2.18119 -0.565628 0.720722
thorax 3.52382 -0.293441 3.05975
lowerneck -1.13303 0.58906 -2.27754
upperneck 16.0571 0.767278 3.59645
head 4.97453 0.591699 1.5415
rclavicle 7.30534e-015 2.50469e-014
rhumerus -48.6031 -31.5648 -63.0284
rradius 18.9294
rwrist 23.4378
rhand -14.6114 10.2491
rfingers 7.12502
rthumb 11.5395 -19.4133
lclavicle 7.30534e-015 2.50469e-014
lhumerus -36.8758 42.725 66.5843
lradius 16.5451
lwrist -47.6091
lhand -4.48246 23.5277
lfingers 7.12502
lthumb 21.2906 52.3782
rfemur -48.3455 6.45207 21.1483
rtibia 37.7725
rfoot -8.21047 -13.3161
rtoes 0.65606
lfemur -19.4911 -10.9145 -24.126
ltibia 26.6492
lfoot -26.4224 10.7227
ltoes 9.74884
55
root -27.2152 16.0446 -0.358804 5.87523 86.6083 -14.9637
lowerback -10.3239 -0.827597 -4.21417
upperback -2.13048 -0.610156 0.72398
thorax 3.61909 -0.318823 3.05014
lowerneck -1.11771 0.635952 -2.36271
upperneck 16.2752 0.824186 3.72156
head 5.03611 0.626646 1.59969
rclavicle -2.33572e-015 1.78906e-015
rhumerus -48.952 -31.4499 -63.0277
rradius 19.2025
rwrist 23.4083
rhand -14.6179 9.94691
rfingers 7.12502
rthumb 11.5332 -19.7158
lclavicle -2.33572e-015 1.78906e-015
lhumerus -35.2719 41.3411 68.4865
lradius 16.8944
lwrist -46.5374
lhand -4.9254 24.1673
lfingers 7.12502
lthumb 20.8651 53.0652
rfemur -48.4765 6.56642 21.0798
rtibia 36.2852
rfoot -7.62169 -12.4348
rtoes 2.27977
lfemur -18.9038 -10.8871 -24.2278
ltibia 26.2408
lfoot -26.4385 10.5342
ltoes 9.25081
56
root -27.1427 16.0446 -0.36075 5.96434 86.7301 -14.8475
lowerback -10.4513 -0.858658 -4.20801
upperback -2.10021 -0.646305 0.735562
thorax 3.72439 -0.339552 3.0533
lowerneck -1.17719 0.522197 -2.51266
upperneck 16.4771 0.66537 3.84603
head 5.11213 0.551811 1.6591
rclavicle -3.8763e-015 -1.78906e-015
rhumerus -49.4136 -31.3596 -63.0045
rradius 19.5432
rwrist 23.4276
rhand -14.7857 9.91532
rfingers 7.12502
rthumb 11.3714 -19.7564
lclavicle -3.8763e-015 -1.78906e-015
lhumerus -34.0163 40.3734 69.8195
lradius 17.396
lwrist -44.889
lhand -4.54837 23.2788
lfingers 7.12502
lthumb 21.2273 52.1365
rfemur -48.7204 6.54456 21.1888
rtibia 34.7448
rfoot -6.39761 -11.5832
rtoes 0.47682
lfemur -18.3939 -10.8259 -24.3133
ltibia 25.8292
lfoot -26.46 10.3047
ltoes 9.21096
